<svg version="1.1" id="Layer_1" xmlns="http://www.w3.org/2000/svg" xmlns:xlink="http://www.w3.org/1999/xlink" x="0px" y="0px"
	 width="100%" height="530" viewBox="0 0 520 420" enable-background="new 0 0 400 400" xml:space="preserve">

<path fill="#f0f0f0" opacity="1.000000" stroke="none" 
	d="
M420.716858,238.999054 
	C420.717194,226.678955 420.824188,214.857132 420.647491,203.039566 
	C420.599457,199.826141 421.428009,198.868988 424.760468,198.920578 
	C438.242218,199.129242 451.729980,199.080704 465.213593,198.942352 
	C468.241089,198.911301 469.632935,199.347076 469.510742,202.923752 
	C469.269562,209.982666 469.512878,209.987473 462.371826,209.982925 
	C454.713776,209.978058 447.054718,210.050034 439.398254,209.939209 
	C436.996185,209.904434 435.994019,210.357132 435.923798,213.151764 
	C435.632751,224.733765 435.513214,224.730835 446.980316,224.731186 
	C452.141266,224.731339 457.306458,224.856201 462.461365,224.679596 
	C465.138367,224.587906 466.205017,225.194885 466.205200,228.182175 
	C466.205597,235.636063 466.377838,235.635117 458.914001,235.636520 
	C452.587708,235.637711 446.258118,235.762817 439.936676,235.588959 
	C437.092896,235.510757 435.936432,236.016083 435.924713,239.320404 
	C435.879669,252.042709 435.732910,252.042542 448.325439,252.042007 
	C454.485260,252.041733 460.650269,252.187668 466.802643,251.972992 
	C469.650482,251.873611 470.751160,252.731537 470.422638,255.577332 
	C470.252075,257.054718 470.340790,258.573364 470.428955,260.066467 
	C470.544952,262.029877 470.099854,263.076416 467.732941,263.061096 
	C452.916656,262.965210 438.099152,262.959503 423.282928,263.059967 
	C420.783386,263.076904 420.708466,261.809387 420.718872,259.976044 
	C420.757660,253.150558 420.723572,246.324661 420.716858,238.999054 
z"/>
<path fill="#f0f0f0" opacity="1.000000" stroke="none" 
	d="
M183.395782,252.885498 
	C187.943192,251.976105 192.125763,251.397705 192.304520,245.642181 
	C192.548889,237.773376 190.949829,235.952484 182.930359,235.877502 
	C178.274872,235.833969 173.622086,236.008987 168.996460,235.114685 
	C160.326294,233.438477 155.932251,228.596115 155.362381,219.840591 
	C154.610962,208.295654 157.776474,202.714355 167.016708,200.079819 
	C176.115189,197.485687 185.449158,197.700989 194.780136,198.416656 
	C195.775467,198.492996 196.763763,198.657776 197.758392,198.747314 
	C204.338196,199.339600 206.390457,202.497925 204.654846,208.968353 
	C204.006241,211.386414 202.429413,210.397278 201.115265,210.293533 
	C193.819565,209.717621 186.556137,208.562988 179.200790,209.118973 
	C172.499969,209.625458 170.827118,211.210602 170.859161,216.980484 
	C170.888367,222.239014 172.261642,223.732056 177.604767,224.032013 
	C183.244202,224.348648 188.911011,223.718796 194.537003,224.808060 
	C203.137405,226.473221 207.269196,231.009140 207.802002,239.715897 
	C208.735291,254.966614 203.862106,261.112610 188.739792,263.415558 
	C178.924194,264.910339 169.150635,263.505219 159.371689,262.657867 
	C155.894577,262.356598 156.780029,259.888519 156.747269,257.906799 
	C156.622574,250.365784 156.634735,250.475311 164.077850,251.529327 
	C170.331589,252.414886 176.598938,253.400589 183.395782,252.885498 
z"/>
<path fill="#f0f0f0" opacity="1.000000" stroke="none" 
	d="
M273.215729,227.277985 
	C272.198090,235.773636 268.860535,239.305359 260.782928,241.031006 
	C254.697189,242.331100 248.520447,242.360275 242.389023,242.038574 
	C238.474716,241.833221 237.526917,243.171448 237.806686,246.814499 
	C238.124344,250.951019 237.745712,255.136444 237.916275,259.290497 
	C238.024170,261.918518 237.457108,263.026855 234.448700,263.100159 
	C222.326508,263.395721 222.329727,263.514221 222.329987,251.488495 
	C222.330353,235.342300 222.418015,219.195236 222.257324,203.050629 
	C222.224442,199.747269 223.176193,198.775635 226.463211,198.924637 
	C237.753189,199.436371 249.097565,198.173080 260.355713,199.900269 
	C269.983154,201.377258 273.153870,205.032318 273.292755,214.862305 
	C273.349182,218.855881 273.266388,222.851440 273.215729,227.277985 
z"/>
<path fill="#f0f0f0" opacity="1.000000" stroke="none" 
	d="
M302.964935,204.809296 
	C303.787750,199.746140 306.557373,198.341034 311.075073,198.947067 
	C315.295502,199.513214 320.578613,197.262939 323.577240,199.867371 
	C326.324982,202.253876 326.758362,207.322540 328.173096,211.223297 
	C334.341614,228.231277 340.496124,245.244324 346.928314,263.008301 
	C342.004944,263.008301 337.618988,262.932373 333.237915,263.045715 
	C331.486267,263.091003 330.999329,262.133636 330.567108,260.772491 
	C329.864380,258.559174 329.038391,256.385315 328.290955,254.185791 
	C325.541565,246.094681 325.545410,246.055023 316.845123,246.107635 
	C312.032471,246.136719 306.097290,244.654968 302.738861,246.921967 
	C299.659058,249.000854 299.200195,255.151993 297.895355,259.599487 
	C297.119995,262.242371 295.923553,263.321899 293.051697,263.083588 
	C289.434113,262.783386 285.772736,263.011169 281.447479,263.011169 
	C288.704376,243.411774 295.780396,224.300827 302.964935,204.809296 
z"/>
<path fill="#f0f0f0" opacity="1.000000" stroke="none" 
	d="
M405.178345,262.056824 
	C393.183441,264.315643 381.625519,265.110748 370.106018,261.874298 
	C360.908966,259.290344 356.557007,253.666794 356.479462,244.080353 
	C356.409393,235.415436 356.417267,226.747833 356.550323,218.083862 
	C356.702301,208.187531 360.917389,202.752991 370.530579,199.987167 
	C381.726776,196.765854 392.953491,198.000473 404.200714,199.842789 
	C406.276215,200.182770 406.565460,201.169678 406.495300,202.839218 
	C406.439331,204.170059 406.301880,205.535995 406.519409,206.832870 
	C407.277252,211.351257 405.149933,211.650925 401.501923,210.757782 
	C394.997711,209.165405 388.340790,208.642426 381.656097,209.107468 
	C374.119965,209.631760 371.972992,211.983246 371.955383,219.375626 
	C371.936737,227.208313 372.077087,235.044098 371.896301,242.872726 
	C371.775360,248.110504 374.306854,250.843658 379.147797,252.062012 
	C387.348724,254.125961 395.376923,252.652863 403.361786,250.910141 
	C406.073730,250.318253 407.584900,250.565277 406.919647,253.720825 
	C406.340973,256.465851 408.452728,259.633240 405.178345,262.056824 
z"/>
<path fill="#f0f0f0" opacity="1.000000" stroke="none" 
	d="
M42.703857,207.812439 
	C48.018982,217.097137 53.232456,226.065521 58.336658,235.095673 
	C59.426266,237.023361 60.622810,238.139709 63.011940,237.865662 
	C64.980728,237.639847 67.037025,238.089386 68.985306,237.789642 
	C73.716209,237.061813 75.295425,238.641525 75.018158,243.604233 
	C74.811653,247.300339 74.044579,248.525391 70.277496,248.243637 
	C64.830750,247.836243 58.390179,249.689667 54.151253,247.353302 
	C50.149590,245.147736 48.403053,238.797913 45.740528,234.226776 
	C40.813324,225.767532 35.941612,217.275955 31.004620,208.448990 
	C30.536697,207.567413 30.540895,206.860199 29.940039,206.116440 
	C29.655210,205.949936 29.257378,205.739212 29.229156,205.515900 
	C29.329918,204.296432 29.025702,203.448563 28.551619,202.553329 
	C26.011730,197.757156 26.734278,196.501312 32.651348,196.005966 
	C68.616219,195.934799 104.130638,196.138031 139.644669,195.905212 
	C141.626740,195.892242 143.715805,195.674667 144.808823,198.480438 
	C143.338669,204.421158 139.731293,205.696960 134.220657,205.644623 
	C104.174126,205.359055 74.123528,205.501389 43.682537,205.492065 
	C42.036049,205.801788 42.313869,206.665100 42.703857,207.812439 
z"/>
<path fill="#f0f0f0" opacity="1.000000" stroke="none" 
	d="
M131.774261,210.671341 
	C133.865662,210.800858 135.681122,210.885818 138.166046,211.002090 
	C136.411438,214.035522 134.715332,216.617630 133.385422,219.376251 
	C132.294556,221.639069 130.430099,221.171143 128.690933,221.175598 
	C117.370407,221.204544 106.048027,221.288345 94.730217,221.107101 
	C91.540771,221.056030 90.392815,221.837067 90.468147,225.224579 
	C90.682755,234.873627 90.208397,244.544846 90.629196,254.180099 
	C90.918060,260.794525 89.630066,266.605530 85.253944,271.768677 
	C82.031197,267.377045 79.589249,262.911194 79.852135,256.905548 
	C80.317612,246.271576 79.861511,235.600327 80.054382,224.949448 
	C80.110153,221.869888 79.299728,220.889816 76.185165,221.096680 
	C71.875595,221.382904 67.533127,221.176956 63.204742,221.175705 
	C57.986973,221.174210 53.692692,218.061142 52.208725,213.115005 
	C51.294685,210.068466 53.670055,210.848801 55.104568,210.841782 
	C64.427254,210.796204 73.750282,210.822693 83.073204,210.821548 
	C98.722382,210.819641 114.371559,210.814728 130.483932,210.765503 
	C131.130844,210.688889 131.314575,210.657837 131.774261,210.671341 
z"/>
<path fill="#f0f0f0" opacity="1.000000" stroke="none" 
	d="
M78.735199,291.339233 
	C73.345901,282.006958 68.144211,272.990417 62.465111,263.146393 
	C66.470619,263.146393 69.694267,263.213043 72.913559,263.123291 
	C75.111282,263.062012 75.546600,264.805725 76.358795,266.176239 
	C79.296257,271.133087 82.206696,276.105927 85.296341,281.360168 
	C91.083275,271.389191 96.482712,261.858551 102.130417,252.477356 
	C104.125885,249.162781 103.978813,247.619705 99.750526,248.201141 
	C93.950607,248.998688 96.195168,244.683533 95.835327,242.108383 
	C95.450653,239.355377 95.757484,237.521957 99.593658,237.716415 
	C106.986305,238.091156 114.411407,237.825653 122.681305,237.825653 
	C110.076233,259.637177 97.901825,280.703491 85.558121,302.062744 
	C82.525261,298.944214 81.193611,294.986359 78.735199,291.339233 
z"/>
<path fill="#f0f0f0" opacity="1.000000" stroke="none" 
	d="
M145.155640,198.716949 
	C143.716660,197.389404 142.149567,196.511124 140.217758,196.565933 
	C104.460175,197.580154 68.695381,196.714874 32.466438,196.997955 
	C31.648111,196.640182 31.513252,196.209900 31.784725,195.437607 
	C69.473610,195.104080 106.940483,195.066559 144.407242,194.975250 
	C149.205597,194.963562 145.647827,197.151566 145.155640,198.716949 
z"/>
<path fill="#f0f0f0" opacity="1.000000" stroke="none" 
	d="
M194.735458,292.622589 
	C198.379974,288.095428 202.441589,291.032715 207.457031,290.494904 
	C204.721039,293.587921 202.433487,292.353058 200.446930,292.642426 
	C198.934280,292.862762 197.059418,292.206085 197.073669,294.974884 
	C197.086395,297.445465 198.412704,297.470612 200.243454,297.586395 
	C201.936493,297.693451 203.877747,296.767181 205.425262,298.461517 
	C204.050735,300.861633 201.835800,299.562897 200.067200,299.697479 
	C198.206787,299.839050 197.038498,299.911926 197.059540,302.375427 
	C197.080338,304.811340 198.171005,304.909821 200.065781,304.948364 
	C202.296921,304.993652 204.657059,304.256561 207.990601,306.264954 
	C203.269165,307.619751 199.448685,307.070251 195.745941,306.898712 
	C194.139832,306.824310 194.786041,305.042267 194.762268,304.018372 
	C194.677475,300.367157 194.731750,296.712677 194.735458,292.622589 
z"/>
<path fill="#f0f0f0" opacity="1.000000" stroke="none" 
	d="
M267.749817,306.531128 
	C266.417755,307.152069 265.379303,306.997314 265.352661,305.678162 
	C265.262146,301.195709 265.286591,296.710663 265.295258,292.226685 
	C265.296967,291.347778 265.643707,290.433563 266.582153,290.376984 
	C267.969330,290.293365 268.164368,291.517303 267.993011,292.462921 
	C267.190613,296.891235 269.378235,297.493073 273.232727,297.514374 
	C276.894867,297.534546 277.386505,295.971130 277.108795,293.062714 
	C276.999542,291.918427 277.051331,290.380219 278.572083,290.391510 
	C280.149384,290.403198 279.945343,291.966705 279.950836,293.096802 
	C279.969391,296.917419 279.971741,300.738342 279.939667,304.558807 
	C279.930573,305.643585 280.286926,307.123352 278.421387,306.986664 
	C277.073120,306.887939 277.206543,305.726257 277.074554,304.745026 
	C276.863495,303.175751 277.978943,300.799377 276.242279,300.213318 
	C274.151123,299.507660 271.462494,299.382294 269.395203,300.080139 
	C266.427216,301.082031 268.764221,304.146942 267.749817,306.531128 
z"/>
<path fill="#f0f0f0" opacity="1.000000" stroke="none" 
	d="
M237.750824,290.159546 
	C239.905182,290.834595 242.023560,290.959625 243.074371,293.872498 
	C239.122864,293.336334 235.397934,291.046051 232.248993,294.492920 
	C231.005402,295.854156 230.706604,297.419800 230.768097,299.092896 
	C230.945801,303.928741 233.990845,305.166412 242.493332,303.924866 
	C240.422882,307.520599 235.580917,308.348114 231.777802,305.756256 
	C227.650543,302.943481 226.753281,297.262115 229.895828,293.499390 
	C231.823166,291.191681 234.368622,290.131775 237.750824,290.159546 
z"/>
<path fill="#f0f0f0" opacity="1.000000" stroke="none" 
	d="
M160.065338,290.526733 
	C164.085495,290.310944 167.737610,290.279358 171.389786,290.263733 
	C172.062317,290.260864 172.732056,290.354309 172.903412,291.179688 
	C173.066391,291.964722 172.599426,292.632080 171.940186,292.557343 
	C165.893005,291.872406 167.609055,296.274780 167.438065,299.387054 
	C167.337982,301.208557 167.426483,303.039795 167.394409,304.865997 
	C167.377563,305.825653 167.529633,307.057373 166.043747,306.951172 
	C164.577469,306.846344 164.960510,305.572754 164.935501,304.667419 
	C164.889664,303.008087 164.937592,301.346405 164.924469,299.685883 
	C164.896332,296.126801 166.127213,291.744812 159.908798,292.295105 
	C159.283463,292.350433 159.250580,291.334747 160.065338,290.526733 
z"/>
<path fill="#f0f0f0" opacity="1.000000" stroke="none" 
	d="
M31.562359,195.076645 
	C32.004078,195.566971 32.001389,195.975723 31.998169,196.691025 
	C27.922544,196.845566 26.686264,198.257141 29.333416,201.821884 
	C30.051071,202.788300 31.541639,203.634079 29.543453,205.154434 
	C27.503712,202.492691 25.789982,199.702545 24.128801,196.881439 
	C23.904768,196.500977 23.945053,195.964859 23.773453,194.995087 
	C26.335718,194.995087 28.726835,194.995087 31.562359,195.076645 
z"/>
<path fill="#f0f0f0" opacity="1.000000" stroke="none" 
	d="
M42.848682,207.757019 
	C41.897278,207.146072 40.272984,206.200134 43.035713,205.326050 
	C43.144764,206.127502 42.998791,206.767410 42.848682,207.757019 
z"/>
<path fill="#f0f0f0" opacity="1.000000" stroke="none" 
	d="
M29.736813,206.265625 
	C30.077539,206.438477 30.499868,206.927002 30.942326,207.757843 
	C30.581108,207.593857 30.199764,207.087570 29.736813,206.265625 
z"/>
<path fill="#f0f0f0" opacity="1.000000" stroke="none" 
	d="
M131.956421,210.546661 
	C131.866623,210.789230 131.683060,210.862534 131.223328,210.827881 
	C131.252304,210.605743 131.557480,210.491577 131.956421,210.546661 
z"/>
<path fill="#f0f0f0" opacity="1.000000" stroke="none" 
	d="
M257.824768,228.213394 
	C252.118668,233.596420 245.366348,231.201202 239.088074,231.588120 
	C237.847702,231.664566 237.858307,230.292297 237.858704,229.289459 
	C237.860931,223.638992 237.905884,217.987991 237.835541,212.338409 
	C237.814880,210.678146 238.297852,209.916031 240.066513,209.976059 
	C244.547516,210.128143 249.040436,210.037674 253.512375,210.310211 
	C256.503479,210.492508 258.483124,212.103027 258.433411,215.400330 
	C258.371002,219.538437 258.916382,223.699951 257.824768,228.213394 
z"/>
<path fill="#f0f0f0" opacity="1.000000" stroke="none" 
	d="
M310.252197,235.958542 
	C307.242554,236.130127 305.237915,236.361847 306.782654,232.452774 
	C309.313507,226.048172 311.230316,219.400909 313.925018,211.294937 
	C316.974640,220.227036 319.535339,227.727203 322.343384,235.951691 
	C318.127502,235.951691 314.420166,235.951691 310.252197,235.958542 
z"/>
</svg>